<svg width="50" height="46" viewBox="0 0 50 46" fill="none" xmlns="http://www.w3.org/2000/svg">
<path d="M49.7526 14.7297L47.1268 3.80122C46.5766 1.5505 44.6259 0 42.3502 0H7.61404C5.36332 0 3.38768 1.57551 2.86251 3.80122L0.236665 14.7297C-0.363528 17.2806 0.186649 19.8814 1.78716 21.9321C1.98723 22.2071 2.26232 22.4072 2.48739 22.6573V40.0129C2.48739 42.7638 4.73811 45.0145 7.489 45.0145H42.5003C45.2512 45.0145 47.5019 42.7638 47.5019 40.0129V22.6573C47.7269 22.4322 48.002 22.2071 48.2021 21.9571C49.8026 19.9064 50.3778 17.2806 49.7526 14.7297ZM42.2752 4.9766L44.901 15.9051C45.1511 16.9555 44.926 18.0058 44.2758 18.8311C43.9257 19.2812 43.1755 20.0064 41.9251 20.0064C40.3996 20.0064 39.0742 18.781 38.8991 17.1555L37.4486 5.00161L42.2752 4.9766ZM27.4954 5.00161H32.397L33.7474 16.3052C33.8725 17.2806 33.5724 18.2559 32.9222 18.9811C32.372 19.6313 31.5717 20.0064 30.5464 20.0064C28.8709 20.0064 27.4954 18.531 27.4954 16.7304V5.00161ZM16.2168 16.3052L17.5922 5.00161H22.4938V16.7304C22.4938 18.531 21.1184 20.0064 19.2678 20.0064C18.4175 20.0064 17.6423 19.6313 17.0421 18.9811C16.4169 18.2559 16.1168 17.2806 16.2168 16.3052ZM5.08823 15.9051L7.61404 5.00161H12.5406L11.0902 17.1555C10.8901 18.781 9.58967 20.0064 8.06418 20.0064C6.83879 20.0064 6.06354 19.2812 5.73844 18.8311C5.06322 18.0308 4.83815 16.9555 5.08823 15.9051ZM7.489 40.0129V24.933C7.68906 24.958 7.86412 25.008 8.06418 25.008C10.2399 25.008 12.2155 24.1078 13.666 22.6323C15.1665 24.1328 17.1671 25.008 19.4428 25.008C21.6185 25.008 23.5692 24.1078 25.0196 22.6823C26.4951 24.1078 28.4958 25.008 30.7465 25.008C32.8472 25.008 34.8478 24.1328 36.3483 22.6323C37.7988 24.1078 39.7744 25.008 41.9501 25.008C42.1502 25.008 42.3252 24.958 42.5253 24.933V40.0129H7.489Z" fill="white" fill-opacity="0.2"/>
</svg>
