<svg width="36" height="32" viewBox="0 0 36 32" fill="none" xmlns="http://www.w3.org/2000/svg">
<path d="M35.3682 10.4711L33.5016 2.70222C33.1105 1.10222 31.7238 0 30.106 0H5.41269C3.81269 0 2.40824 1.12 2.03491 2.70222L0.168241 10.4711C-0.258426 12.2844 0.132686 14.1333 1.27046 15.5911C1.41269 15.7867 1.60824 15.9289 1.76824 16.1067V28.4444C1.76824 30.4 3.36824 32 5.3238 32H30.2127C32.1682 32 33.7682 30.4 33.7682 28.4444V16.1067C33.9282 15.9467 34.1238 15.7867 34.266 15.6089C35.4038 14.1511 35.8127 12.2844 35.3682 10.4711ZM30.0527 3.53778L31.9193 11.3067C32.0971 12.0533 31.9371 12.8 31.4749 13.3867C31.226 13.7067 30.6927 14.2222 29.8038 14.2222C28.7194 14.2222 27.7771 13.3511 27.6527 12.1956L26.6216 3.55556L30.0527 3.53778ZM19.546 3.55556H23.0305L23.9905 11.5911C24.0794 12.2844 23.866 12.9778 23.4038 13.4933C23.0127 13.9556 22.4438 14.2222 21.7149 14.2222C20.5238 14.2222 19.546 13.1733 19.546 11.8933V3.55556ZM11.5282 11.5911L12.506 3.55556H15.9905V11.8933C15.9905 13.1733 15.0127 14.2222 13.6971 14.2222C13.0927 14.2222 12.5416 13.9556 12.1149 13.4933C11.6705 12.9778 11.4571 12.2844 11.5282 11.5911ZM3.61713 11.3067L5.41269 3.55556H8.91491L7.8838 12.1956C7.74157 13.3511 6.81713 14.2222 5.73269 14.2222C4.86157 14.2222 4.31046 13.7067 4.07935 13.3867C3.59935 12.8178 3.43935 12.0533 3.61713 11.3067ZM5.3238 28.4444V17.7244C5.46602 17.7422 5.59046 17.7778 5.73269 17.7778C7.27935 17.7778 8.6838 17.1378 9.71491 16.0889C10.7816 17.1556 12.2038 17.7778 13.8216 17.7778C15.3682 17.7778 16.7549 17.1378 17.786 16.1244C18.8349 17.1378 20.2571 17.7778 21.8571 17.7778C23.3505 17.7778 24.7727 17.1556 25.8394 16.0889C26.8705 17.1378 28.2749 17.7778 29.8216 17.7778C29.9638 17.7778 30.0882 17.7422 30.2305 17.7244V28.4444H5.3238Z" fill="black"/>
</svg>
